# xmcd
#
# Track frame offsets:
#	187
#	15162
#	34507
#	40462
#	48510
#	53362
#	72000
#	87937
#	102112
#	113812
#	120762
#	129675
#	139567
#	153462
#	168937
#	176112
#	184537
#	196987
#	207812
#	219150
#	225337
#	233287
#	251137
#	263775
#	288287
#	315062
#
# Disc length: 4321 seconds
#
# Revision: 1
# Processed by: cddbd v1.5.1PL0 Copyright (c) Steve Scherf et al.
# Submitted via: CDex 1.50Beta5
#
DISCID=4110df1a
DTITLE=山下和仁 - 山下和仁ギター小品集 ?
DYEAR=1900
DGENRE=Classical
TTITLE0=セレナーデ
TTITLE1=アルバ
TTITLE2=マーチ〜 劇音楽「リア王」作品58より
TTITLE3=カンシオン
TTITLE4=はちすずめ
TTITLE5=むなしき後悔
TTITLE6=エチュード作品31の4
TTITLE7=この道
TTITLE8=赤とんぼ
TTITLE9=セレナーデ
TTITLE10=哀歌(ドロール)
TTITLE11=カンシオン第3番
TTITLE12=タランテラ
TTITLE13=インドの歌 〜歌劇「サトコ」より
TTITLE14=くまんばち
TTITLE15=アラゴネーズ 〜歌劇「カルメン」より
TTITLE16=霧の朝
TTITLE17=子守歌
TTITLE18=即興曲
TTITLE19=ニンナ・ナンナ
TTITLE20=エチュード第23番
TTITLE21=エボカシオン
TTITLE22=カンシオン・トリステ
TTITLE23=独創的幻想曲
TTITLE24=亡き王女のためのパヴァーヌ
TTITLE25=ミンストレル〜前奏曲集第1巻より
EXTD=
EXTT0=
EXTT1=
EXTT2=
EXTT3=
EXTT4=
EXTT5=
EXTT6=
EXTT7=
EXTT8=
EXTT9=
EXTT10=
EXTT11=
EXTT12=
EXTT13=
EXTT14=
EXTT15=
EXTT16=
EXTT17=
EXTT18=
EXTT19=
EXTT20=
EXTT21=
EXTT22=
EXTT23=
EXTT24=
EXTT25=
PLAYORDER=
